<?xml version="1.0" encoding="utf-8"?>
<!-- Generator: Adobe Illustrator 22.1.0, SVG Export Plug-In . SVG Version: 6.00 Build 0)  -->
<svg version="1.1" id="Capa_1" xmlns="http://www.w3.org/2000/svg" xmlns:xlink="http://www.w3.org/1999/xlink" x="0px" y="0px"
	 width="18px" height="18px" viewBox="0 0 18 18" style="enable-background:new 0 0 18 18;" xml:space="preserve">
<style type="text/css">
	.st0{fill:#CCCCCC;}
</style>
<path class="st0" d="M15.5,3.3C15.2,3,14.9,3,14.6,3h-1.2V2c0-0.4-0.2-0.8-0.5-1c-0.3-0.3-0.7-0.5-1-0.5h-0.6c-0.4,0-0.8,0.2-1,0.5
	C10,1.3,9.8,1.6,9.8,2V3H6.1V2c0-0.4-0.2-0.8-0.5-1C5.4,0.7,5,0.5,4.6,0.5H4c-0.4,0-0.8,0.2-1,0.5S2.5,1.6,2.5,2V3H1.2
	C0.9,3,0.7,3,0.4,3.3C0.2,3.5,0,3.8,0,4.2v12.2c0,0.3,0.1,0.6,0.4,0.8c0.3,0.2,0.6,0.3,0.8,0.3h13.3c0.3,0,0.6-0.1,0.9-0.4
	c0.3-0.3,0.4-0.6,0.4-0.9V4.2C15.9,3.8,15.7,3.5,15.5,3.3z M4,16.3H1.2v-2.7H4V16.3z M4,13H1.2v-3H4V13z M4,9.3H1.2V6.5H4V9.3z
	 M3.8,4.9c-0.1,0-0.1-0.1-0.1-0.2V2c0-0.1,0-0.2,0.1-0.2C3.9,1.7,3.9,1.7,4,1.7h0.6c0.1,0,0.2,0,0.2,0.1C4.8,1.9,4.8,1.9,4.8,2v2.7
	c0,0.1,0,0.2-0.1,0.2C4.7,5,4.7,5,4.6,5H4C3.9,5,3.9,5,3.8,4.9z M7.6,16.3h-3v-2.7h3V16.3L7.6,16.3z M7.6,13h-3v-3h3V13L7.6,13z
	 M7.6,9.3h-3V6.5h3V9.3L7.6,9.3z M11.2,16.3h-3v-2.7h3V16.3z M11.2,13h-3v-3h3V13z M11.2,9.3h-3V6.5h3V9.3z M11.1,4.9
	C11,4.8,11,4.8,11,4.8V2c0-0.1,0-0.2,0.1-0.2c0.1-0.1,0.1-0.1,0.2-0.1h0.6c0.1,0,0.2,0,0.2,0.1c0.1,0.1,0.1,0.1,0.1,0.2v2.7
	c0,0.1,0,0.2-0.1,0.2C11.9,5,11.9,5,11.8,5h-0.6C11.1,5,11.1,5,11.1,4.9z M14.6,16.3h-2.7v-2.7h2.7V16.3z M14.6,13h-2.7v-3h2.7V13z
	 M14.6,9.3h-2.7V6.5h2.7V9.3z"/>
</svg>
